<mxfile host="app.diagrams.net" modified="2021-07-22T09:23:07.518Z" agent="5.0 (Windows NT 10.0; WOW64) AppleWebKit/537.36 (KHTML, like Gecko) Chrome/87.0.4280.66 Safari/537.36" etag="G8tskVi7m8ENd6YVOGcj" version="14.9.1" type="github">
  <diagram id="C5RBs43oDa-KdzZeNtuy" name="Page-1">
    <mxGraphModel dx="1182" dy="772" grid="1" gridSize="10" guides="1" tooltips="1" connect="1" arrows="1" fold="1" page="1" pageScale="1" pageWidth="827" pageHeight="1169" math="0" shadow="0">
      <root>
        <mxCell id="WIyWlLk6GJQsqaUBKTNV-0" />
        <mxCell id="WIyWlLk6GJQsqaUBKTNV-1" parent="WIyWlLk6GJQsqaUBKTNV-0" />
        <mxCell id="E-IsLOTDaiB3l4diJcmT-2" value="" style="edgeStyle=orthogonalEdgeStyle;rounded=0;orthogonalLoop=1;jettySize=auto;html=1;" edge="1" parent="WIyWlLk6GJQsqaUBKTNV-1" source="E-IsLOTDaiB3l4diJcmT-0" target="E-IsLOTDaiB3l4diJcmT-1">
          <mxGeometry relative="1" as="geometry" />
        </mxCell>
        <mxCell id="E-IsLOTDaiB3l4diJcmT-0" value="Job" style="text;html=1;strokeColor=none;fillColor=none;align=center;verticalAlign=middle;whiteSpace=wrap;rounded=0;" vertex="1" parent="WIyWlLk6GJQsqaUBKTNV-1">
          <mxGeometry x="90" y="70" width="40" height="20" as="geometry" />
        </mxCell>
        <mxCell id="E-IsLOTDaiB3l4diJcmT-4" value="" style="edgeStyle=orthogonalEdgeStyle;rounded=0;orthogonalLoop=1;jettySize=auto;html=1;" edge="1" parent="WIyWlLk6GJQsqaUBKTNV-1" source="E-IsLOTDaiB3l4diJcmT-1" target="E-IsLOTDaiB3l4diJcmT-3">
          <mxGeometry relative="1" as="geometry" />
        </mxCell>
        <mxCell id="E-IsLOTDaiB3l4diJcmT-1" value="" style="shape=singleArrow;whiteSpace=wrap;html=1;arrowWidth=0.4;arrowSize=0.4;" vertex="1" parent="WIyWlLk6GJQsqaUBKTNV-1">
          <mxGeometry x="190" y="50" width="80" height="60" as="geometry" />
        </mxCell>
        <mxCell id="E-IsLOTDaiB3l4diJcmT-6" value="" style="edgeStyle=orthogonalEdgeStyle;rounded=0;orthogonalLoop=1;jettySize=auto;html=1;" edge="1" parent="WIyWlLk6GJQsqaUBKTNV-1" source="E-IsLOTDaiB3l4diJcmT-3" target="E-IsLOTDaiB3l4diJcmT-5">
          <mxGeometry relative="1" as="geometry" />
        </mxCell>
        <mxCell id="E-IsLOTDaiB3l4diJcmT-3" value="&lt;p&gt;effective_order_flu&lt;/p&gt;" style="shape=cylinder;whiteSpace=wrap;html=1;boundedLbl=1;backgroundOutline=1;" vertex="1" parent="WIyWlLk6GJQsqaUBKTNV-1">
          <mxGeometry x="360" y="40" width="60" height="80" as="geometry" />
        </mxCell>
        <mxCell id="E-IsLOTDaiB3l4diJcmT-9" value="" style="edgeStyle=orthogonalEdgeStyle;rounded=0;orthogonalLoop=1;jettySize=auto;html=1;" edge="1" parent="WIyWlLk6GJQsqaUBKTNV-1" source="E-IsLOTDaiB3l4diJcmT-5" target="E-IsLOTDaiB3l4diJcmT-8">
          <mxGeometry relative="1" as="geometry" />
        </mxCell>
        <mxCell id="E-IsLOTDaiB3l4diJcmT-5" value="orderIds" style="whiteSpace=wrap;html=1;" vertex="1" parent="WIyWlLk6GJQsqaUBKTNV-1">
          <mxGeometry x="330" y="210" width="120" height="60" as="geometry" />
        </mxCell>
        <mxCell id="E-IsLOTDaiB3l4diJcmT-7" value="一批订单" style="text;html=1;strokeColor=none;fillColor=none;align=center;verticalAlign=middle;whiteSpace=wrap;rounded=0;" vertex="1" parent="WIyWlLk6GJQsqaUBKTNV-1">
          <mxGeometry x="400" y="150" width="60" height="20" as="geometry" />
        </mxCell>
        <mxCell id="E-IsLOTDaiB3l4diJcmT-12" value="" style="edgeStyle=orthogonalEdgeStyle;rounded=0;orthogonalLoop=1;jettySize=auto;html=1;" edge="1" parent="WIyWlLk6GJQsqaUBKTNV-1" source="E-IsLOTDaiB3l4diJcmT-8" target="E-IsLOTDaiB3l4diJcmT-11">
          <mxGeometry relative="1" as="geometry" />
        </mxCell>
        <mxCell id="E-IsLOTDaiB3l4diJcmT-14" style="edgeStyle=orthogonalEdgeStyle;rounded=0;orthogonalLoop=1;jettySize=auto;html=1;entryX=1;entryY=0.5;entryDx=0;entryDy=0;" edge="1" parent="WIyWlLk6GJQsqaUBKTNV-1" source="E-IsLOTDaiB3l4diJcmT-8" target="E-IsLOTDaiB3l4diJcmT-11">
          <mxGeometry relative="1" as="geometry">
            <mxPoint x="390" y="660" as="targetPoint" />
            <Array as="points">
              <mxPoint x="390" y="630" />
            </Array>
          </mxGeometry>
        </mxCell>
        <mxCell id="E-IsLOTDaiB3l4diJcmT-16" style="edgeStyle=orthogonalEdgeStyle;rounded=0;orthogonalLoop=1;jettySize=auto;html=1;entryX=1;entryY=0.5;entryDx=0;entryDy=0;" edge="1" parent="WIyWlLk6GJQsqaUBKTNV-1" source="E-IsLOTDaiB3l4diJcmT-8" target="E-IsLOTDaiB3l4diJcmT-3">
          <mxGeometry relative="1" as="geometry">
            <mxPoint x="560" y="150" as="targetPoint" />
            <Array as="points">
              <mxPoint x="560" y="440" />
              <mxPoint x="560" y="80" />
            </Array>
          </mxGeometry>
        </mxCell>
        <mxCell id="E-IsLOTDaiB3l4diJcmT-8" value="&lt;p&gt;findValidateOrderByOrderid&lt;/p&gt;" style="whiteSpace=wrap;html=1;" vertex="1" parent="WIyWlLk6GJQsqaUBKTNV-1">
          <mxGeometry x="330" y="410" width="120" height="60" as="geometry" />
        </mxCell>
        <mxCell id="E-IsLOTDaiB3l4diJcmT-10" value="是否可开票&lt;br&gt;前端价格信息接口&lt;br&gt;是否可修改&lt;br&gt;过滤非海鲜价订单" style="text;html=1;strokeColor=none;fillColor=none;align=center;verticalAlign=middle;whiteSpace=wrap;rounded=0;" vertex="1" parent="WIyWlLk6GJQsqaUBKTNV-1">
          <mxGeometry x="400" y="290" width="100" height="100" as="geometry" />
        </mxCell>
        <mxCell id="E-IsLOTDaiB3l4diJcmT-11" value="&lt;p&gt;price_fluctuation_order&lt;/p&gt;" style="shape=cylinder;whiteSpace=wrap;html=1;boundedLbl=1;backgroundOutline=1;" vertex="1" parent="WIyWlLk6GJQsqaUBKTNV-1">
          <mxGeometry x="190" y="590" width="60" height="80" as="geometry" />
        </mxCell>
        <mxCell id="E-IsLOTDaiB3l4diJcmT-13" value="符合海鲜价数据" style="text;html=1;strokeColor=none;fillColor=none;align=center;verticalAlign=middle;whiteSpace=wrap;rounded=0;" vertex="1" parent="WIyWlLk6GJQsqaUBKTNV-1">
          <mxGeometry x="150" y="500" width="60" height="40" as="geometry" />
        </mxCell>
        <mxCell id="E-IsLOTDaiB3l4diJcmT-15" value="过入住时间、&lt;br&gt;已开票&lt;br&gt;&lt;font color=&quot;#ff2b72&quot;&gt;逻辑删除&lt;/font&gt;" style="text;html=1;strokeColor=none;fillColor=none;align=center;verticalAlign=middle;whiteSpace=wrap;rounded=0;" vertex="1" parent="WIyWlLk6GJQsqaUBKTNV-1">
          <mxGeometry x="390" y="540" width="80" height="60" as="geometry" />
        </mxCell>
        <mxCell id="E-IsLOTDaiB3l4diJcmT-18" value="过入住时间、&lt;br&gt;已开票&lt;br&gt;&lt;font color=&quot;#ff2b72&quot;&gt;物理删除&lt;/font&gt;" style="text;html=1;strokeColor=none;fillColor=none;align=center;verticalAlign=middle;whiteSpace=wrap;rounded=0;" vertex="1" parent="WIyWlLk6GJQsqaUBKTNV-1">
          <mxGeometry x="560" y="200" width="90" height="50" as="geometry" />
        </mxCell>
      </root>
    </mxGraphModel>
  </diagram>
</mxfile>
